<svg width="31" height="18" viewBox="0 0 31 18" fill="none" xmlns="http://www.w3.org/2000/svg">
<path d="M18.5 17.5V0.5H21.5V7.5H27.5V10.5H21.5V14.5H30.5V17.5H18.5Z" fill="white" stroke="white"/>
<path d="M18.5 0.5V17.5H21.5V10.5H27.5V7.5H21.5V3.5H30.5V0.5H18.5Z" fill="white" stroke="white"/>
<path d="M18.5 17.5V0.5H21.5V7.5H27.5V10.5H21.5V14.5H30.5V17.5H18.5Z" fill="white" stroke="white"/>
<path d="M18.5 0.5V17.5H21.5V10.5H27.5V7.5H21.5V3.5H30.5V0.5H18.5Z" fill="white" stroke="white"/>
<path d="M0.5 17.5V0.5H3.5V7.5H9.5V10.5H3.5V14.5H12.5V17.5H0.5Z" fill="white" stroke="white"/>
<path d="M0.5 0.5V17.5H3.5V10.5H9.5V7.5H3.5V3.5H12.5V0.5H0.5Z" fill="white" stroke="white"/>
<path d="M0.5 17.5V0.5H3.5V7.5H9.5V10.5H3.5V14.5H12.5V17.5H0.5Z" fill="white" stroke="white"/>
<path d="M0.5 0.5V17.5H3.5V10.5H9.5V7.5H3.5V3.5H12.5V0.5H0.5Z" fill="white" stroke="white"/>
</svg>
